<svg aria-hidden="true" style="position: absolute; width: 0; height: 0; overflow: hidden;" version="1.1" xmlns="http://www.w3.org/2000/svg" xmlns:xlink="http://www.w3.org/1999/xlink">
<defs>
<symbol id="icon-graph" viewBox="0 0 30 32">
<path d="M5 1.5c0.828 0 1.5 0.672 1.5 1.5v22.5h20.5c0.828 0 1.5 0.672 1.5 1.5s-0.672 1.5-1.5 1.5h-20.5v1.5c0 0.828-0.672 1.5-1.5 1.5s-1.5-0.672-1.5-1.5v-1.5h-1.5c-0.828 0-1.5-0.672-1.5-1.5s0.672-1.5 1.5-1.5h1.5v-22.5c0-0.828 0.672-1.5 1.5-1.5z"></path>
<path d="M27 4.737h-17.13c-0.552 0-1 0.448-1 1v3.263c0 0.552 0.448 1 1 1h17.13c0.552 0 1-0.448 1-1v-3.263c0-0.552-0.448-1-1-1z"></path>
<path d="M21.174 18.737h-16.174c-0.552 0-1 0.448-1 1v3.263c0 0.552 0.448 1 1 1h16.174c0.552 0 1-0.448 1-1v-3.263c0-0.552-0.448-1-1-1z"></path>
<path d="M14.391 11.737h-3.652c-0.552 0-1 0.448-1 1v3.263c0 0.552 0.448 1 1 1h3.652c0.552 0 1-0.448 1-1v-3.263c0-0.552-0.448-1-1-1z"></path>
<path d="M23.087 11.737h-3.826c-0.552 0-1 0.448-1 1v3.263c0 0.552 0.448 1 1 1h3.826c0.552 0 1-0.448 1-1v-3.263c0-0.552-0.448-1-1-1z"></path>
</symbol>
<symbol id="icon-edit" viewBox="0 0 14 20">
<path d="M13.044 5.303l-7.321 11.713-5.366 2.146v-5.461l7.306-11.689c0.558-0.893 1.324-1.452 2.2-1.61 0.856-0.155 1.671 0.101 2.294 0.545 1.204 0.858 1.984 2.692 0.886 4.356zM10.244 2.511c-0.178 0.032-0.465 0.159-0.764 0.637l-6.98 11.168v1.682l1.777-0.711 6.974-11.158c0.317-0.475 0.17-1.075-0.337-1.437-0.234-0.167-0.473-0.217-0.67-0.181z"></path>
</symbol>
<symbol id="icon-arrow-down" viewBox="0 0 29 20">
<path d="M1.434 1.256c0.885-0.786 2.239-0.707 3.025 0.178l9.827 11.055 9.827-11.055c0.786-0.885 2.141-0.964 3.025-0.178s0.964 2.141 0.178 3.025l-13.030 14.659-13.030-14.659c-0.786-0.885-0.707-2.239 0.178-3.025z"></path>
</symbol>
<symbol id="icon-settings" viewBox="0 0 20 20">
<path d="M9.943 2.72c0.005-0.013 0.009-0.021 0.012-0.025 0.002-0.003 0.003-0.005 0.004-0.006s0.005-0.002 0.010-0.004 0.019-0.004 0.032-0.004 0.024 0.002 0.032 0.004c0.005 0.001 0.008 0.003 0.010 0.004s0.002 0.003 0.004 0.006 0.007 0.012 0.012 0.025c0.793 1.996 3.078 2.943 5.051 2.092 0.013-0.005 0.021-0.008 0.026-0.009 0.002-0 0.003-0.001 0.005-0.001s0.002-0 0.002-0 0.005 0.002 0.009 0.004c0.007 0.004 0.016 0.011 0.025 0.019s0.015 0.018 0.019 0.025c0.002 0.004 0.003 0.006 0.004 0.008 0 0 0 0.001 0 0.001s-0.001 0.003-0.001 0.007c-0.001 0.005-0.004 0.014-0.009 0.026-0.851 1.972 0.096 4.258 2.092 5.051 0.013 0.005 0.021 0.009 0.025 0.012 0.002 0.001 0.004 0.003 0.005 0.003s0 0 0.001 0c0.001 0.002 0.002 0.005 0.003 0.010 0.002 0.008 0.004 0.019 0.004 0.032s-0.002 0.024-0.004 0.032c-0.001 0.005-0.003 0.008-0.003 0.010s-0.003 0.002-0.006 0.004-0.012 0.007-0.025 0.012c-1.996 0.793-2.943 3.078-2.092 5.051 0.006 0.013 0.008 0.021 0.009 0.026 0.001 0.003 0.001 0.005 0.001 0.007s-0.002 0.005-0.004 0.009-0.011 0.016-0.019 0.025c-0.009 0.009-0.018 0.015-0.025 0.019-0.004 0.003-0.008 0.004-0.009 0.004s-0.003-0.001-0.007-0.001-0.014-0.004-0.026-0.009c-1.972-0.851-4.258 0.096-5.051 2.092-0.005 0.013-0.009 0.021-0.012 0.025-0.002 0.003-0.003 0.005-0.004 0.006s-0.005 0.002-0.010 0.003-0.019 0.004-0.032 0.004-0.024-0.002-0.032-0.004c-0.005-0.001-0.008-0.003-0.010-0.003s-0.002-0.003-0.004-0.006-0.007-0.012-0.012-0.025c-0.793-1.996-3.078-2.943-5.051-2.092-0.013 0.006-0.021 0.008-0.026 0.009-0.003 0.001-0.005 0.001-0.007 0.001s-0.005-0.002-0.009-0.004-0.016-0.011-0.025-0.019c-0.009-0.009-0.015-0.018-0.019-0.025-0.002-0.004-0.004-0.008-0.004-0.009s0.001-0.003 0.001-0.007 0.004-0.014 0.009-0.026c0.85-1.972-0.096-4.258-2.092-5.051-0.013-0.005-0.021-0.009-0.025-0.012-0.003-0.002-0.005-0.003-0.006-0.004s-0.002-0.005-0.004-0.010-0.004-0.019-0.004-0.032 0.002-0.024 0.004-0.032c0.001-0.005 0.003-0.008 0.004-0.010s0.003-0.002 0.006-0.004 0.012-0.007 0.025-0.012c1.996-0.793 2.943-3.078 2.092-5.051-0.005-0.013-0.008-0.021-0.009-0.026-0.001-0.003-0.001-0.005-0.001-0.007s0.002-0.005 0.004-0.009 0.011-0.016 0.019-0.025 0.018-0.015 0.025-0.019c0.004-0.002 0.008-0.004 0.009-0.004s0.003 0.001 0.007 0.001 0.014 0.004 0.026 0.009c1.972 0.85 4.258-0.096 5.051-2.092zM11.799 2.027c-0.647-1.628-2.952-1.628-3.599 0-0.403 1.014-1.564 1.495-2.566 1.063-1.609-0.694-3.238 0.936-2.545 2.545 0.432 1.002-0.049 2.163-1.063 2.566-1.628 0.647-1.628 2.952 0 3.599 1.014 0.403 1.495 1.564 1.063 2.566-0.694 1.609 0.936 3.238 2.545 2.544 1.002-0.432 2.163 0.049 2.566 1.063 0.647 1.628 2.952 1.628 3.599 0 0.403-1.014 1.564-1.495 2.566-1.063 1.609 0.694 3.238-0.936 2.544-2.544-0.432-1.002 0.049-2.163 1.063-2.566 1.628-0.647 1.628-2.952 0-3.599-1.014-0.403-1.495-1.564-1.063-2.566 0.694-1.609-0.936-3.238-2.544-2.545-1.002 0.432-2.163-0.049-2.566-1.063zM10 13.125c-1.726 0-3.125-1.399-3.125-3.125s1.399-3.125 3.125-3.125c1.726 0 3.125 1.399 3.125 3.125s-1.399 3.125-3.125 3.125zM10 15c2.761 0 5-2.239 5-5s-2.239-5-5-5c-2.761 0-5 2.239-5 5s2.239 5 5 5z"></path>
</symbol>
<symbol id="icon-delete" viewBox="0 0 14 20">
<path d="M7.059 0.294c0.487 0 0.882 0.395 0.882 0.882v1.471h5c0.487 0 0.882 0.395 0.882 0.882s-0.395 0.882-0.882 0.882h-11.765c-0.487 0-0.882-0.395-0.882-0.882s0.395-0.882 0.882-0.882h5v-1.471c0-0.487 0.395-0.882 0.882-0.882zM0.522 5.879c0.167-0.185 0.405-0.29 0.654-0.29h11.765c0.249 0 0.487 0.105 0.654 0.29s0.249 0.432 0.224 0.68l-1.176 11.765c-0.045 0.451-0.425 0.795-0.878 0.795h-9.412c-0.453 0-0.833-0.344-0.878-0.795l-1.176-11.765c-0.025-0.248 0.056-0.495 0.224-0.68zM2.151 7.353l1 10h7.815l1-10h-9.815zM4.044 7.944c0.486-0.040 0.912 0.32 0.953 0.806l0.588 7.059c0.040 0.486-0.32 0.912-0.806 0.953s-0.912-0.32-0.953-0.806l-0.588-7.059c-0.040-0.486 0.32-0.912 0.806-0.953zM10.073 7.944c0.486 0.040 0.846 0.467 0.806 0.953l-0.588 7.059c-0.040 0.486-0.467 0.846-0.953 0.806s-0.846-0.467-0.806-0.953l0.588-7.059c0.040-0.486 0.467-0.847 0.953-0.806zM7.059 7.941c0.487 0 0.882 0.395 0.882 0.882v7.059c0 0.487-0.395 0.882-0.882 0.882s-0.882-0.395-0.882-0.882v-7.059c0-0.487 0.395-0.882 0.882-0.882z"></path>
</symbol>
<symbol id="icon-close" viewBox="0 0 18 20">
<path d="M0.83 0.738c0.513-0.462 1.303-0.42 1.765 0.093l6.571 7.301 6.571-7.301c0.462-0.513 1.252-0.555 1.765-0.093s0.555 1.252 0.093 1.765l-6.747 7.497 6.747 7.497c0.462 0.513 0.42 1.303-0.093 1.765s-1.303 0.42-1.765-0.093l-6.571-7.301-6.571 7.301c-0.462 0.513-1.252 0.555-1.765 0.093s-0.555-1.252-0.093-1.765l6.747-7.497-6.747-7.497c-0.462-0.513-0.42-1.303 0.093-1.765z"></path>
</symbol>
<symbol id="icon-pause" viewBox="0 0 17 20">
<path d="M5 0h-5v20h5v-20zM16.667 0h-5v20h5v-20z"></path>
</symbol>
<symbol id="icon-copy" viewBox="0 0 17 20">
<path d="M0.333 1.333c0-0.552 0.448-1 1-1h10.667c0.552 0 1 0.448 1 1v2.333h2.333c0.552 0 1 0.448 1 1v13.333c0 0.552-0.448 1-1 1h-10.667c-0.552 0-1-0.448-1-1v-2.333h-2.333c-0.552 0-1-0.448-1-1v-13.333zM3.667 13.667v-9c0-0.552 0.448-1 1-1h6.333v-1.333h-8.667v11.333h1.333zM5.667 5.667v11.333h8.667v-11.333h-8.667z"></path>
</symbol>
</defs>
</svg>
