<svg width="11" height="12" viewBox="0 0 11 12" fill="none" xmlns="http://www.w3.org/2000/svg">
<path fill-rule="evenodd" clip-rule="evenodd" d="M0.498283 0.442536C0.806165 0.165442 1.28038 0.1904 1.55748 0.498283L5.50001 4.87887L9.44254 0.498283C9.71963 0.1904 10.1938 0.165442 10.5017 0.442536C10.8096 0.71963 10.8346 1.19385 10.5575 1.50173L6.50903 6.00001L10.5575 10.4983C10.8346 10.8062 10.8096 11.2804 10.5017 11.5575C10.1938 11.8346 9.71963 11.8096 9.44254 11.5017L5.50001 7.12114L1.55748 11.5017C1.28038 11.8096 0.806165 11.8346 0.498283 11.5575C0.1904 11.2804 0.165442 10.8062 0.442536 10.4983L4.49098 6.00001L0.442536 1.50173C0.165442 1.19385 0.1904 0.71963 0.498283 0.442536Z" fill="black"/>
</svg>
