<svg width="13" height="15" viewBox="0 0 13 15" fill="none" xmlns="http://www.w3.org/2000/svg">
<path fill-rule="evenodd" clip-rule="evenodd" d="M0.25 1C0.25 0.585786 0.585786 0.25 1 0.25H9C9.41421 0.25 9.75 0.585786 9.75 1V2.75H11.5C11.9142 2.75 12.25 3.08579 12.25 3.5V13.5C12.25 13.9142 11.9142 14.25 11.5 14.25H3.5C3.08579 14.25 2.75 13.9142 2.75 13.5V11.75H1C0.585786 11.75 0.25 11.4142 0.25 11V1ZM2.75 10.25V3.5C2.75 3.08579 3.08579 2.75 3.5 2.75H8.25V1.75H1.75V10.25H2.75ZM4.25 4.25V12.75H10.75V4.25H4.25Z" fill="black"/>
</svg>
