<svg width="12" height="17" viewBox="0 0 12 17" fill="none" xmlns="http://www.w3.org/2000/svg">
<path fill-rule="evenodd" clip-rule="evenodd" d="M6 0.25C6.41422 0.25 6.75 0.585786 6.75 1V2.25H11C11.4142 2.25 11.75 2.58579 11.75 3C11.75 3.41421 11.4142 3.75 11 3.75H1C0.58579 3.75 0.250003 3.41421 0.250003 3C0.250003 2.58579 0.58579 2.25 1 2.25H5.25V1C5.25 0.585786 5.58579 0.25 6 0.25ZM0.443914 4.99675C0.586098 4.83963 0.788106 4.75 1 4.75H11C11.2119 4.75 11.4139 4.83963 11.5561 4.99675C11.6983 5.15386 11.7674 5.36378 11.7463 5.57463L10.7463 15.5746C10.7079 15.958 10.3853 16.25 10 16.25H2C1.61469 16.25 1.29207 15.958 1.25373 15.5746L0.253725 5.57463C0.232641 5.36378 0.30173 5.15386 0.443914 4.99675ZM1.82874 6.25L2.67874 14.75H9.32126L10.1713 6.25H1.82874ZM3.43772 6.75259C3.8505 6.71819 4.21301 7.02493 4.24741 7.43772L4.74741 13.4377C4.78181 13.8505 4.47507 14.213 4.06229 14.2474C3.6495 14.2818 3.28699 13.9751 3.25259 13.5623L2.75259 7.56228C2.7182 7.1495 3.02494 6.78699 3.43772 6.75259ZM8.56229 6.75259C8.97507 6.78699 9.28181 7.1495 9.24741 7.56228L8.74741 13.5623C8.71301 13.9751 8.3505 14.2818 7.93772 14.2474C7.52494 14.213 7.2182 13.8505 7.25259 13.4377L7.75259 7.43772C7.78699 7.02493 8.1495 6.71819 8.56229 6.75259ZM6 6.75C6.41422 6.75 6.75 7.08579 6.75 7.5V13.5C6.75 13.9142 6.41422 14.25 6 14.25C5.58579 14.25 5.25 13.9142 5.25 13.5V7.5C5.25 7.08579 5.58579 6.75 6 6.75Z" fill="black"/>
</svg>
