<svg width="15" height="16" viewBox="0 0 15 16" fill="none" xmlns="http://www.w3.org/2000/svg">
<path fill-rule="evenodd" clip-rule="evenodd" d="M2.5 0.75C2.91421 0.75 3.25 1.08579 3.25 1.5V12.75H13.5C13.9142 12.75 14.25 13.0858 14.25 13.5C14.25 13.9142 13.9142 14.25 13.5 14.25H3.25V15C3.25 15.4142 2.91421 15.75 2.5 15.75C2.08579 15.75 1.75 15.4142 1.75 15V14.25H1C0.585786 14.25 0.25 13.9142 0.25 13.5C0.25 13.0858 0.585786 12.75 1 12.75H1.75V1.5C1.75 1.08579 2.08579 0.75 2.5 0.75Z" fill="black"/>
<path d="M13.5 2.36842H4.93478C4.65864 2.36842 4.43478 2.59228 4.43478 2.86842V4.5C4.43478 4.77614 4.65864 5 4.93478 5H13.5C13.7761 5 14 4.77614 14 4.5V2.86842C14 2.59228 13.7761 2.36842 13.5 2.36842Z" fill="black"/>
<path d="M10.587 9.36832H2.5C2.22386 9.36832 2 9.59217 2 9.86832V11.4999C2 11.776 2.22386 11.9999 2.5 11.9999H10.587C10.8631 11.9999 11.087 11.776 11.087 11.4999V9.86832C11.087 9.59217 10.8631 9.36832 10.587 9.36832Z" fill="black"/>
<path d="M7.19565 5.86842H5.36957C5.09342 5.86842 4.86957 6.09228 4.86957 6.36842V8C4.86957 8.27614 5.09342 8.5 5.36957 8.5H7.19565C7.47179 8.5 7.69565 8.27614 7.69565 8V6.36842C7.69565 6.09228 7.47179 5.86842 7.19565 5.86842Z" fill="black"/>
<path d="M11.5435 5.86842H9.63043C9.35429 5.86842 9.13043 6.09228 9.13043 6.36842V8C9.13043 8.27614 9.35429 8.5 9.63044 8.5H11.5435C11.8196 8.5 12.0435 8.27614 12.0435 8V6.36842C12.0435 6.09228 11.8196 5.86842 11.5435 5.86842Z" fill="black"/>
</svg>
