<svg width="16" height="16" viewBox="0 0 16 16" fill="none" xmlns="http://www.w3.org/2000/svg">
<path fill-rule="evenodd" clip-rule="evenodd" d="M7.95452 2.17588C7.3199 3.77271 5.49175 4.52996 3.91388 3.84957C3.90376 3.84521 3.89676 3.84309 3.8928 3.84207C3.89026 3.84141 3.88852 3.8411 3.88751 3.84094C3.88619 3.84138 3.88368 3.84236 3.88011 3.84434C3.87425 3.8476 3.86705 3.85275 3.8599 3.8599C3.85275 3.86705 3.8476 3.87425 3.84434 3.88011C3.84236 3.88368 3.84138 3.88619 3.84094 3.88751C3.8411 3.88852 3.84141 3.89026 3.84207 3.8928C3.84309 3.89676 3.84521 3.90376 3.84957 3.91388C4.52996 5.49175 3.77271 7.3199 2.17588 7.95452C2.16564 7.95859 2.15919 7.96204 2.15567 7.96412C2.15341 7.96546 2.15195 7.96646 2.15113 7.96707C2.15051 7.96831 2.14943 7.97078 2.14831 7.9747C2.14647 7.98115 2.14502 7.98989 2.14502 7.99999C2.14502 8.0101 2.14647 8.01883 2.14831 8.02529C2.14943 8.02921 2.15051 8.03167 2.15113 8.03292C2.15195 8.03352 2.15341 8.03453 2.15567 8.03587C2.15919 8.03794 2.16564 8.0414 2.17588 8.04547C3.77271 8.68008 4.52996 10.5082 3.84957 12.0861C3.84521 12.0962 3.84309 12.1032 3.84207 12.1072C3.84141 12.1097 3.8411 12.1115 3.84094 12.1125C3.84138 12.1138 3.84236 12.1163 3.84434 12.1199C3.8476 12.1257 3.85275 12.1329 3.8599 12.1401C3.86705 12.1472 3.87425 12.1524 3.88011 12.1556C3.88368 12.1576 3.88619 12.1586 3.88751 12.159C3.88851 12.1589 3.89026 12.1586 3.8928 12.1579C3.89676 12.1569 3.90376 12.1548 3.91388 12.1504C5.49175 11.47 7.3199 12.2273 7.95452 13.8241C7.95859 13.8343 7.96204 13.8408 7.96412 13.8443C7.96546 13.8466 7.96646 13.848 7.96707 13.8489C7.96831 13.8495 7.97078 13.8506 7.9747 13.8517C7.98115 13.8535 7.98989 13.855 7.99999 13.855C8.0101 13.855 8.01883 13.8535 8.02529 13.8517C8.02921 13.8506 8.03167 13.8495 8.03292 13.8489C8.03352 13.848 8.03453 13.8466 8.03587 13.8443C8.03794 13.8408 8.0414 13.8343 8.04547 13.8241C8.68008 12.2273 10.5082 11.47 12.0861 12.1504C12.0962 12.1548 12.1032 12.1569 12.1072 12.1579C12.1097 12.1586 12.1115 12.1589 12.1125 12.159C12.1138 12.1586 12.1163 12.1576 12.1199 12.1556C12.1257 12.1524 12.1329 12.1472 12.1401 12.1401C12.1472 12.1329 12.1524 12.1257 12.1556 12.1199C12.1576 12.1163 12.1586 12.1138 12.159 12.1125C12.1589 12.1115 12.1586 12.1097 12.1579 12.1072C12.1569 12.1032 12.1548 12.0962 12.1504 12.0861C11.47 10.5082 12.2273 8.68008 13.8241 8.04547C13.8343 8.0414 13.8408 8.03794 13.8443 8.03587C13.8466 8.03453 13.848 8.03352 13.8489 8.03292C13.8495 8.03168 13.8506 8.02921 13.8517 8.02529C13.8535 8.01883 13.855 8.0101 13.855 7.99999C13.855 7.98989 13.8535 7.98115 13.8517 7.9747C13.8506 7.97078 13.8495 7.96831 13.8489 7.96707C13.8487 7.96697 13.8486 7.96687 13.8484 7.96676C13.8476 7.96614 13.8462 7.96525 13.8443 7.96412C13.8408 7.96204 13.8343 7.95859 13.8241 7.95452C12.2273 7.3199 11.47 5.49175 12.1504 3.91388C12.1548 3.90376 12.1569 3.89676 12.1579 3.8928C12.1586 3.89026 12.1589 3.88852 12.159 3.88751C12.159 3.88725 12.1589 3.88695 12.1587 3.88661C12.1582 3.88518 12.1572 3.88299 12.1556 3.88011C12.1524 3.87425 12.1472 3.86705 12.1401 3.8599C12.1329 3.85275 12.1257 3.8476 12.1199 3.84434C12.1163 3.84236 12.1138 3.84138 12.1125 3.84094C12.1121 3.84101 12.1115 3.8411 12.1109 3.84122C12.1099 3.84141 12.1087 3.84168 12.1072 3.84207C12.1032 3.84309 12.0962 3.84521 12.0861 3.84957C10.5082 4.52996 8.68008 3.77271 8.04547 2.17588C8.0414 2.16564 8.03794 2.15919 8.03587 2.15567C8.03453 2.15341 8.03352 2.15195 8.03292 2.15113C8.03168 2.15051 8.02921 2.14943 8.02529 2.14831C8.01883 2.14647 8.0101 2.14502 7.99999 2.14502C7.98989 2.14502 7.98115 2.14647 7.9747 2.14831C7.97078 2.14943 7.96831 2.15051 7.96707 2.15113C7.96646 2.15195 7.96546 2.15341 7.96412 2.15567C7.96204 2.15919 7.95859 2.16564 7.95452 2.17588ZM9.43942 1.62189C8.92178 0.319395 7.07821 0.319395 6.56057 1.62189C6.23817 2.43312 5.30942 2.81782 4.50782 2.47217C3.22079 1.91719 1.91719 3.22079 2.47217 4.50782C2.81782 5.30942 2.43312 6.23817 1.62189 6.56057C0.319395 7.07821 0.319395 8.92178 1.62189 9.43942C2.43312 9.76182 2.81782 10.6906 2.47217 11.4922C1.91719 12.7792 3.22079 14.0828 4.50782 13.5278C5.30942 13.1822 6.23817 13.5669 6.56057 14.3781C7.07821 15.6806 8.92178 15.6806 9.43942 14.3781C9.76182 13.5669 10.6906 13.1822 11.4922 13.5278C12.7792 14.0828 14.0828 12.7792 13.5278 11.4922C13.1822 10.6906 13.5669 9.76182 14.3781 9.43942C15.6806 8.92178 15.6806 7.07821 14.3781 6.56057C13.5669 6.23817 13.1822 5.30942 13.5278 4.50782C14.0828 3.22079 12.7792 1.91719 11.4922 2.47217C10.6906 2.81782 9.76182 2.43312 9.43942 1.62189ZM7.99999 10.5C9.38071 10.5 10.5 9.38071 10.5 7.99999C10.5 6.61928 9.38071 5.49999 7.99999 5.49999C6.61928 5.49999 5.49999 6.61928 5.49999 7.99999C5.49999 9.38071 6.61928 10.5 7.99999 10.5ZM7.99999 12C10.2091 12 12 10.2091 12 7.99999C12 5.79085 10.2091 3.99999 7.99999 3.99999C5.79085 3.99999 3.99999 5.79085 3.99999 7.99999C3.99999 10.2091 5.79085 12 7.99999 12Z" fill="black"/>
</svg>
